<svg xmlns="http://www.w3.org/2000/svg" viewBox="0 0 1440 320">
  <path
    fill="#05386B"
    fill-opacity="1"
    d="M0,192L17.1,176C34.3,160,69,128,103,149.3C137.1,171,171,245,206,250.7C240,256,274,192,309,186.7C342.9,181,377,235,411,250.7C445.7,267,480,245,514,202.7C548.6,160,583,96,617,96C651.4,96,686,160,720,165.3C754.3,171,789,117,823,122.7C857.1,128,891,192,926,213.3C960,235,994,213,1029,197.3C1062.9,181,1097,171,1131,149.3C1165.7,128,1200,96,1234,90.7C1268.6,85,1303,107,1337,106.7C1371.4,107,1406,85,1423,74.7L1440,64L1440,320L1422.9,320C1405.7,320,1371,320,1337,320C1302.9,320,1269,320,1234,320C1200,320,1166,320,1131,320C1097.1,320,1063,320,1029,320C994.3,320,960,320,926,320C891.4,320,857,320,823,320C788.6,320,754,320,720,320C685.7,320,651,320,617,320C582.9,320,549,320,514,320C480,320,446,320,411,320C377.1,320,343,320,309,320C274.3,320,240,320,206,320C171.4,320,137,320,103,320C68.6,320,34,320,17,320L0,320Z"
  ></path>
</svg>